<svg width="76" height="10" viewBox="0 0 76 10" fill="none" xmlns="http://www.w3.org/2000/svg">
<path d="M1.2352 0.512V9.8304H0V0.512H1.2352ZM5.1392 4.704V5.7152H0.9664V4.704H5.1392ZM5.7728 0.512V1.5232H0.9664V0.512H5.7728ZM8.352 2.9056V9.8304H7.1616V2.9056H8.352ZM7.072 1.0688C7.072 0.8768 7.1296 0.714667 7.2448 0.5824C7.36427 0.450133 7.5392 0.384 7.7696 0.384C7.99573 0.384 8.16853 0.450133 8.288 0.5824C8.41173 0.714667 8.4736 0.8768 8.4736 1.0688C8.4736 1.25227 8.41173 1.41013 8.288 1.5424C8.16853 1.6704 7.99573 1.7344 7.7696 1.7344C7.5392 1.7344 7.36427 1.6704 7.2448 1.5424C7.1296 1.41013 7.072 1.25227 7.072 1.0688ZM11.4368 4.384V9.8304H10.2528V2.9056H11.3728L11.4368 4.384ZM11.1552 6.1056L10.6624 6.0864C10.6667 5.6128 10.7371 5.17547 10.8736 4.7744C11.0101 4.36907 11.2021 4.01707 11.4496 3.7184C11.6971 3.41973 11.9915 3.18933 12.3328 3.0272C12.6784 2.8608 13.0603 2.7776 13.4784 2.7776C13.8197 2.7776 14.1269 2.82453 14.4 2.9184C14.6731 3.008 14.9056 3.15307 15.0976 3.3536C15.2939 3.55413 15.4432 3.8144 15.5456 4.1344C15.648 4.45013 15.6992 4.83627 15.6992 5.2928V9.8304H14.5088V5.28C14.5088 4.91733 14.4555 4.6272 14.3488 4.4096C14.2421 4.18773 14.0864 4.02773 13.8816 3.9296C13.6768 3.8272 13.4251 3.776 13.1264 3.776C12.832 3.776 12.5632 3.83787 12.32 3.9616C12.0811 4.08533 11.8741 4.256 11.6992 4.4736C11.5285 4.6912 11.3941 4.9408 11.296 5.2224C11.2021 5.49973 11.1552 5.79413 11.1552 6.1056ZM21.8624 8.4864V0H23.0528V9.8304H21.9648L21.8624 8.4864ZM17.2032 6.4448V6.3104C17.2032 5.78133 17.2672 5.30133 17.3952 4.8704C17.5275 4.4352 17.7131 4.06187 17.952 3.7504C18.1952 3.43893 18.4832 3.2 18.816 3.0336C19.1531 2.86293 19.5285 2.7776 19.9424 2.7776C20.3776 2.7776 20.7573 2.8544 21.0816 3.008C21.4101 3.15733 21.6875 3.37707 21.9136 3.6672C22.144 3.95307 22.3253 4.29867 22.4576 4.704C22.5899 5.10933 22.6816 5.568 22.7328 6.08V6.6688C22.6859 7.17653 22.5941 7.63307 22.4576 8.0384C22.3253 8.44373 22.144 8.78933 21.9136 9.0752C21.6875 9.36107 21.4101 9.5808 21.0816 9.7344C20.7531 9.88373 20.3691 9.9584 19.9296 9.9584C19.5243 9.9584 19.1531 9.87093 18.816 9.696C18.4832 9.52107 18.1952 9.27573 17.952 8.96C17.7131 8.64427 17.5275 8.27307 17.3952 7.8464C17.2672 7.41547 17.2032 6.94827 17.2032 6.4448ZM18.3936 6.3104V6.4448C18.3936 6.7904 18.4277 7.11467 18.496 7.4176C18.5685 7.72053 18.6795 7.9872 18.8288 8.2176C18.9781 8.448 19.168 8.62933 19.3984 8.7616C19.6288 8.8896 19.904 8.9536 20.224 8.9536C20.6165 8.9536 20.9387 8.8704 21.1904 8.704C21.4464 8.5376 21.6512 8.31787 21.8048 8.0448C21.9584 7.77173 22.0779 7.4752 22.1632 7.1552V5.6128C22.112 5.37813 22.0373 5.152 21.9392 4.9344C21.8453 4.71253 21.7216 4.51627 21.568 4.3456C21.4187 4.17067 21.2331 4.032 21.0112 3.9296C20.7936 3.8272 20.5355 3.776 20.2368 3.776C19.9125 3.776 19.6331 3.84427 19.3984 3.9808C19.168 4.11307 18.9781 4.29653 18.8288 4.5312C18.6795 4.7616 18.5685 5.0304 18.496 5.3376C18.4277 5.64053 18.3936 5.9648 18.3936 6.3104ZM33.2928 7.4752C33.2928 7.2576 33.2587 7.0656 33.1904 6.8992C33.1264 6.72853 33.0112 6.57493 32.8448 6.4384C32.6827 6.30187 32.4565 6.17173 32.1664 6.048C31.8805 5.92427 31.5179 5.7984 31.0784 5.6704C30.6176 5.53387 30.2016 5.3824 29.8304 5.216C29.4592 5.04533 29.1413 4.8512 28.8768 4.6336C28.6123 4.416 28.4096 4.1664 28.2688 3.8848C28.128 3.6032 28.0576 3.28107 28.0576 2.9184C28.0576 2.55573 28.1323 2.2208 28.2816 1.9136C28.4309 1.6064 28.6443 1.33973 28.9216 1.1136C29.2032 0.8832 29.5381 0.704 29.9264 0.576C30.3147 0.448 30.7477 0.384 31.2256 0.384C31.9253 0.384 32.5184 0.5184 33.0048 0.7872C33.4955 1.05173 33.8688 1.39947 34.1248 1.8304C34.3808 2.25707 34.5088 2.7136 34.5088 3.2H33.28C33.28 2.85013 33.2053 2.5408 33.056 2.272C32.9067 1.99893 32.6805 1.7856 32.3776 1.632C32.0747 1.47413 31.6907 1.3952 31.2256 1.3952C30.7861 1.3952 30.4235 1.46133 30.1376 1.5936C29.8517 1.72587 29.6384 1.90507 29.4976 2.1312C29.3611 2.35733 29.2928 2.61547 29.2928 2.9056C29.2928 3.10187 29.3333 3.28107 29.4144 3.4432C29.4997 3.60107 29.6299 3.74827 29.8048 3.8848C29.984 4.02133 30.2101 4.1472 30.4832 4.2624C30.7605 4.3776 31.0912 4.48853 31.4752 4.5952C32.0043 4.74453 32.4608 4.91093 32.8448 5.0944C33.2288 5.27787 33.5445 5.4848 33.792 5.7152C34.0437 5.94133 34.2293 6.19947 34.3488 6.4896C34.4725 6.77547 34.5344 7.09973 34.5344 7.4624C34.5344 7.84213 34.4576 8.1856 34.304 8.4928C34.1504 8.8 33.9307 9.0624 33.6448 9.28C33.3589 9.4976 33.0155 9.66613 32.6144 9.7856C32.2176 9.9008 31.7739 9.9584 31.2832 9.9584C30.8523 9.9584 30.4277 9.89867 30.0096 9.7792C29.5957 9.65973 29.2181 9.48053 28.8768 9.2416C28.5397 9.00267 28.2688 8.70827 28.064 8.3584C27.8635 8.00427 27.7632 7.59467 27.7632 7.1296H28.992C28.992 7.4496 29.0539 7.7248 29.1776 7.9552C29.3013 8.18133 29.4699 8.36907 29.6832 8.5184C29.9008 8.66773 30.1461 8.77867 30.4192 8.8512C30.6965 8.91947 30.9845 8.9536 31.2832 8.9536C31.7141 8.9536 32.0789 8.89387 32.3776 8.7744C32.6763 8.65493 32.9024 8.48427 33.056 8.2624C33.2139 8.04053 33.2928 7.77813 33.2928 7.4752ZM38.8032 9.9584C38.3211 9.9584 37.8837 9.87733 37.4912 9.7152C37.1029 9.5488 36.768 9.31627 36.4864 9.0176C36.2091 8.71893 35.9957 8.3648 35.8464 7.9552C35.6971 7.5456 35.6224 7.0976 35.6224 6.6112V6.3424C35.6224 5.7792 35.7056 5.27787 35.872 4.8384C36.0384 4.39467 36.2645 4.0192 36.5504 3.712C36.8363 3.4048 37.1605 3.17227 37.5232 3.0144C37.8859 2.85653 38.2613 2.7776 38.6496 2.7776C39.1445 2.7776 39.5712 2.86293 39.9296 3.0336C40.2923 3.20427 40.5888 3.4432 40.8192 3.7504C41.0496 4.05333 41.2203 4.41173 41.3312 4.8256C41.4421 5.2352 41.4976 5.6832 41.4976 6.1696V6.7008H36.3264V5.7344H40.3136V5.6448C40.2965 5.3376 40.2325 5.03893 40.1216 4.7488C40.0149 4.45867 39.8443 4.21973 39.6096 4.032C39.3749 3.84427 39.0549 3.7504 38.6496 3.7504C38.3808 3.7504 38.1333 3.808 37.9072 3.9232C37.6811 4.03413 37.4869 4.20053 37.3248 4.4224C37.1627 4.64427 37.0368 4.9152 36.9472 5.2352C36.8576 5.5552 36.8128 5.92427 36.8128 6.3424V6.6112C36.8128 6.93973 36.8576 7.24907 36.9472 7.5392C37.0411 7.82507 37.1755 8.0768 37.3504 8.2944C37.5296 8.512 37.7451 8.68267 37.9968 8.8064C38.2528 8.93013 38.5429 8.992 38.8672 8.992C39.2853 8.992 39.6395 8.90667 39.9296 8.736C40.2197 8.56533 40.4736 8.33707 40.6912 8.0512L41.408 8.6208C41.2587 8.84693 41.0688 9.0624 40.8384 9.2672C40.608 9.472 40.3243 9.6384 39.9872 9.7664C39.6544 9.8944 39.2597 9.9584 38.8032 9.9584ZM44.064 3.9936V9.8304H42.88V2.9056H44.032L44.064 3.9936ZM46.2272 2.8672L46.2208 3.968C46.1227 3.94667 46.0288 3.93387 45.9392 3.9296C45.8539 3.92107 45.7557 3.9168 45.6448 3.9168C45.3717 3.9168 45.1307 3.95947 44.9216 4.0448C44.7125 4.13013 44.5355 4.2496 44.3904 4.4032C44.2453 4.5568 44.1301 4.74027 44.0448 4.9536C43.9637 5.16267 43.9104 5.39307 43.8848 5.6448L43.552 5.8368C43.552 5.41867 43.5925 5.02613 43.6736 4.6592C43.7589 4.29227 43.8891 3.968 44.064 3.6864C44.2389 3.40053 44.4608 3.17867 44.7296 3.0208C45.0027 2.85867 45.3269 2.7776 45.7024 2.7776C45.7877 2.7776 45.8859 2.78827 45.9968 2.8096C46.1077 2.82667 46.1845 2.84587 46.2272 2.8672ZM49.5424 8.7616L51.4368 2.9056H52.6464L50.1568 9.8304H49.3632L49.5424 8.7616ZM47.9616 2.9056L49.9136 8.7936L50.048 9.8304H49.2544L46.7456 2.9056H47.9616ZM55.072 2.9056V9.8304H53.8816V2.9056H55.072ZM53.792 1.0688C53.792 0.8768 53.8496 0.714667 53.9648 0.5824C54.0843 0.450133 54.2592 0.384 54.4896 0.384C54.7157 0.384 54.8885 0.450133 55.008 0.5824C55.1317 0.714667 55.1936 0.8768 55.1936 1.0688C55.1936 1.25227 55.1317 1.41013 55.008 1.5424C54.8885 1.6704 54.7157 1.7344 54.4896 1.7344C54.2592 1.7344 54.0843 1.6704 53.9648 1.5424C53.8496 1.41013 53.792 1.25227 53.792 1.0688ZM59.744 8.9856C60.0256 8.9856 60.2859 8.928 60.5248 8.8128C60.7637 8.6976 60.96 8.53973 61.1136 8.3392C61.2672 8.1344 61.3547 7.90187 61.376 7.6416H62.5024C62.4811 8.0512 62.3424 8.43307 62.0864 8.7872C61.8347 9.13707 61.504 9.4208 61.0944 9.6384C60.6848 9.85173 60.2347 9.9584 59.744 9.9584C59.2235 9.9584 58.7691 9.86667 58.3808 9.6832C57.9968 9.49973 57.6768 9.248 57.4208 8.928C57.1691 8.608 56.9792 8.24107 56.8512 7.8272C56.7275 7.40907 56.6656 6.96747 56.6656 6.5024V6.2336C56.6656 5.76853 56.7275 5.32907 56.8512 4.9152C56.9792 4.49707 57.1691 4.128 57.4208 3.808C57.6768 3.488 57.9968 3.23627 58.3808 3.0528C58.7691 2.86933 59.2235 2.7776 59.744 2.7776C60.2859 2.7776 60.7595 2.88853 61.1648 3.1104C61.5701 3.328 61.888 3.62667 62.1184 4.0064C62.3531 4.38187 62.4811 4.80853 62.5024 5.2864H61.376C61.3547 5.00053 61.2736 4.7424 61.1328 4.512C60.9963 4.2816 60.8085 4.09813 60.5696 3.9616C60.3349 3.8208 60.0597 3.7504 59.744 3.7504C59.3813 3.7504 59.0763 3.82293 58.8288 3.968C58.5856 4.1088 58.3915 4.3008 58.2464 4.544C58.1056 4.78293 58.0032 5.0496 57.9392 5.344C57.8795 5.63413 57.8496 5.93067 57.8496 6.2336V6.5024C57.8496 6.80533 57.8795 7.104 57.9392 7.3984C57.9989 7.6928 58.0992 7.95947 58.24 8.1984C58.3851 8.43733 58.5792 8.62933 58.8224 8.7744C59.0699 8.9152 59.3771 8.9856 59.744 8.9856ZM66.7072 9.9584C66.2251 9.9584 65.7877 9.87733 65.3952 9.7152C65.0069 9.5488 64.672 9.31627 64.3904 9.0176C64.1131 8.71893 63.8997 8.3648 63.7504 7.9552C63.6011 7.5456 63.5264 7.0976 63.5264 6.6112V6.3424C63.5264 5.7792 63.6096 5.27787 63.776 4.8384C63.9424 4.39467 64.1685 4.0192 64.4544 3.712C64.7403 3.4048 65.0645 3.17227 65.4272 3.0144C65.7899 2.85653 66.1653 2.7776 66.5536 2.7776C67.0485 2.7776 67.4752 2.86293 67.8336 3.0336C68.1963 3.20427 68.4928 3.4432 68.7232 3.7504C68.9536 4.05333 69.1243 4.41173 69.2352 4.8256C69.3461 5.2352 69.4016 5.6832 69.4016 6.1696V6.7008H64.2304V5.7344H68.2176V5.6448C68.2005 5.3376 68.1365 5.03893 68.0256 4.7488C67.9189 4.45867 67.7483 4.21973 67.5136 4.032C67.2789 3.84427 66.9589 3.7504 66.5536 3.7504C66.2848 3.7504 66.0373 3.808 65.8112 3.9232C65.5851 4.03413 65.3909 4.20053 65.2288 4.4224C65.0667 4.64427 64.9408 4.9152 64.8512 5.2352C64.7616 5.5552 64.7168 5.92427 64.7168 6.3424V6.6112C64.7168 6.93973 64.7616 7.24907 64.8512 7.5392C64.9451 7.82507 65.0795 8.0768 65.2544 8.2944C65.4336 8.512 65.6491 8.68267 65.9008 8.8064C66.1568 8.93013 66.4469 8.992 66.7712 8.992C67.1893 8.992 67.5435 8.90667 67.8336 8.736C68.1237 8.56533 68.3776 8.33707 68.5952 8.0512L69.312 8.6208C69.1627 8.84693 68.9728 9.0624 68.7424 9.2672C68.512 9.472 68.2283 9.6384 67.8912 9.7664C67.5584 9.8944 67.1637 9.9584 66.7072 9.9584ZM74.816 7.9936C74.816 7.82293 74.7776 7.66507 74.7008 7.52C74.6283 7.37067 74.4768 7.23627 74.2464 7.1168C74.0203 6.99307 73.6789 6.8864 73.2224 6.7968C72.8384 6.71573 72.4907 6.61973 72.1792 6.5088C71.872 6.39787 71.6096 6.26347 71.392 6.1056C71.1787 5.94773 71.0144 5.76213 70.8992 5.5488C70.784 5.33547 70.7264 5.08587 70.7264 4.8C70.7264 4.52693 70.7861 4.2688 70.9056 4.0256C71.0293 3.7824 71.2021 3.56693 71.424 3.3792C71.6501 3.19147 71.9211 3.04427 72.2368 2.9376C72.5525 2.83093 72.9045 2.7776 73.2928 2.7776C73.8475 2.7776 74.3211 2.87573 74.7136 3.072C75.1061 3.26827 75.4069 3.53067 75.616 3.8592C75.8251 4.18347 75.9296 4.544 75.9296 4.9408H74.7456C74.7456 4.7488 74.688 4.5632 74.5728 4.384C74.4619 4.20053 74.2976 4.04907 74.08 3.9296C73.8667 3.81013 73.6043 3.7504 73.2928 3.7504C72.9643 3.7504 72.6976 3.8016 72.4928 3.904C72.2923 4.00213 72.1451 4.128 72.0512 4.2816C71.9616 4.4352 71.9168 4.59733 71.9168 4.768C71.9168 4.896 71.9381 5.0112 71.9808 5.1136C72.0277 5.21173 72.1088 5.30347 72.224 5.3888C72.3392 5.46987 72.5013 5.54667 72.7104 5.6192C72.9195 5.69173 73.1861 5.76427 73.5104 5.8368C74.0779 5.9648 74.5451 6.1184 74.912 6.2976C75.2789 6.4768 75.552 6.69653 75.7312 6.9568C75.9104 7.21707 76 7.5328 76 7.904C76 8.20693 75.936 8.48427 75.808 8.736C75.6843 8.98773 75.5029 9.20533 75.264 9.3888C75.0293 9.568 74.7477 9.7088 74.4192 9.8112C74.0949 9.90933 73.7301 9.9584 73.3248 9.9584C72.7147 9.9584 72.1984 9.8496 71.776 9.632C71.3536 9.4144 71.0336 9.1328 70.816 8.7872C70.5984 8.4416 70.4896 8.0768 70.4896 7.6928H71.68C71.6971 8.01707 71.7909 8.2752 71.9616 8.4672C72.1323 8.65493 72.3413 8.78933 72.5888 8.8704C72.8363 8.9472 73.0816 8.9856 73.3248 8.9856C73.6491 8.9856 73.92 8.94293 74.1376 8.8576C74.3595 8.77227 74.528 8.65493 74.6432 8.5056C74.7584 8.35627 74.816 8.1856 74.816 7.9936Z" fill="#282C35"/>
</svg>
